<svg xmlns="http://www.w3.org/2000/svg" xmlns:xlink="http://www.w3.org/1999/xlink" width="16" height="16" class="icon" p-id="2598" t="1647503050143" version="1.1" viewBox="0 0 1024 1024"><defs><style type="text/css"/></defs><path fill="#78adfe" d="M525.541 131.503L295.047 279.535h-114.99c-63.894 0-115.679 51.15-115.679 115.219v230.898c0 63.665 51.151 115.22 115.68 115.22h114.989L525.54 888.787c32.582 14.13 57.84-0.98 57.84-33.043V164.546c0-32.121-25.892-46.826-57.84-33.043z m194.224 186.034c-10.842-11.65-29.122-12.284-40.712-1.385-11.65 10.9-12.227 29.123-1.385 40.771 5.363 5.766 14.532 18.512 23.99 37.772 16.146 32.871 25.892 71.45 25.892 115.508 0 44.059-9.746 82.694-25.892 115.508-9.458 19.26-18.627 32.005-23.99 37.772-10.9 11.648-10.265 29.871 1.385 40.77 11.648 10.9 29.871 10.265 40.77-1.384 9.054-9.688 21.51-26.988 33.621-51.727 19.895-40.483 31.775-87.654 31.775-140.996 0-53.342-11.88-100.514-31.775-140.996-12.17-24.625-24.626-41.984-33.68-51.613z m176.807-35.696c-23.298-39.444-46.826-66.779-63.318-81.484-11.88-10.61-30.103-9.572-40.715 2.365-10.61 11.937-9.573 30.102 2.365 40.712 2.71 2.421 8.131 7.843 15.397 16.262 12.456 14.416 24.911 31.601 36.619 51.44 33.504 56.86 53.63 123.349 53.63 199.066s-20.126 142.207-53.687 199.125c-11.707 19.837-24.221 37.022-36.62 51.439-7.265 8.418-12.686 13.84-15.397 16.261-11.88 10.61-12.916 28.834-2.364 40.714 10.553 11.88 28.834 12.917 40.713 2.364 16.494-14.705 40.022-41.982 63.32-81.484 38.522-65.336 61.645-141.745 61.645-228.419 0.059-86.615-23.066-163.024-61.588-228.361z" p-id="2599"/></svg>